{
    "asset" : {
        "generator" : "Khronos glTF Blender I/O v1.6.16",
        "version" : "2.0"
    },
    "scene" : 0,
    "scenes" : [
        {
            "name" : "Scene",
            "nodes" : [
                0,
                1,
                9,
                10
            ]
        }
    ],
    "nodes" : [
        {
            "name" : "Light",
            "rotation" : [
                0.16907580196857452,
                0.7558803558349609,
                -0.27217134833335876,
                0.570947527885437
            ],
            "translation" : [
                0.23859499394893646,
                0.38837122917175293,
                -0.040218155831098557
            ]
        },
        {
            "name" : "Camera",
            "rotation" : [
                0.5158156752586365,
                0.3656991124153137,
                -0.25825589895248413,
                0.7304123640060425
            ],
            "scale" : [
                0.03999999910593033,
                0.03999999910593033,
                0.03999999910593033
            ],
            "translation" : [
                0.28435567021369934,
                0.19833236932754517,
                0.2870316505432129
            ]
        },
        {
            "mesh" : 0,
            "name" : "Face",
            "translation" : [
                0.016844309866428375,
                0,
                0
            ]
        },
        {
            "children" : [
                2
            ],
            "mesh" : 1,
            "name" : "Body"
        },
        {
            "children" : [
                3
            ],
            "name" : "BodyNeutralPose",
            "rotation" : [
                0,
                0,
                0.1365896314382553,
                0.9906277060508728
            ],
            "translation" : [
                -0.0003009999927598983,
                0.050783999264240265,
                0
            ]
        },
        {
            "mesh" : 2,
            "name" : "LeftWheel_Tyre"
        },
        {
            "children" : [
                5
            ],
            "mesh" : 3,
            "name" : "LeftWheel_Hub",
            "rotation" : [
                -0.5000001192092896,
                0.5,
                -0.49999991059303284,
                0.5
            ],
            "scale" : [
                0.027510911226272583,
                0.012115050107240677,
                0.027510911226272583
            ],
            "translation" : [
                0,
                0.027338063344359398,
                -0.06312297284603119
            ]
        },
        {
            "mesh" : 2,
            "name" : "RightWheel_Tyre"
        },
        {
            "children" : [
                7
            ],
            "mesh" : 3,
            "name" : "RightWheel_Hub",
            "rotation" : [
                -0.5000001192092896,
                0.5,
                -0.49999991059303284,
                0.5
            ],
            "scale" : [
                0.027510911226272583,
                0.012115050107240677,
                0.027510911226272583
            ],
            "translation" : [
                0,
                0.027338063344359398,
                0.06277358531951904
            ]
        },
        {
            "children" : [
                4,
                6,
                8
            ],
            "name" : "Root"
        },
        {
            "mesh" : 4,
            "name" : "Plane",
            "scale" : [
                0.3649199903011322,
                0.3649199604988098,
                3.799638271331787
            ],
            "translation" : [
                0,
                0,
                -0.34097912907600403
            ]
        }
    ],
    "materials" : [
        {
            "doubleSided" : true,
            "emissiveFactor" : [
                1,
                1,
                1
            ],
            "emissiveTexture" : {
                "index" : 0
            },
            "name" : "Material",
            "pbrMetallicRoughness" : {
                "baseColorTexture" : {
                    "index" : 1
                },
                "metallicFactor" : 0,
                "roughnessFactor" : 0.4000000059604645
            }
        },
        {
            "doubleSided" : true,
            "name" : "Material.004",
            "pbrMetallicRoughness" : {
                "baseColorFactor" : [
                    0,
                    0,
                    0,
                    1
                ],
                "metallicFactor" : 0.5763546824455261,
                "roughnessFactor" : 0.3374384045600891
            }
        },
        {
            "doubleSided" : true,
            "name" : "RubberTyre",
            "normalTexture" : {
                "index" : 2
            },
            "pbrMetallicRoughness" : {
                "baseColorFactor" : [
                    0,
                    0,
                    0,
                    1
                ],
                "metallicFactor" : 0,
                "roughnessFactor" : 0.3181818127632141
            }
        },
        {
            "doubleSided" : true,
            "name" : "Material.001",
            "pbrMetallicRoughness" : {
                "baseColorFactor" : [
                    0.800000011920929,
                    0.800000011920929,
                    0.800000011920929,
                    1
                ],
                "metallicFactor" : 0,
                "roughnessFactor" : 0.5
            }
        },
        {
            "doubleSided" : true,
            "name" : "Material.003",
            "pbrMetallicRoughness" : {
                "baseColorFactor" : [
                    0.6953368186950684,
                    0.26807406544685364,
                    0.04288353770971298,
                    1
                ],
                "metallicFactor" : 0,
                "roughnessFactor" : 0.5
            }
        }
    ],
    "meshes" : [
        {
            "name" : "Cube.001",
            "primitives" : [
                {
                    "attributes" : {
                        "POSITION" : 0,
                        "NORMAL" : 1,
                        "TEXCOORD_0" : 2
                    },
                    "indices" : 3,
                    "material" : 0
                }
            ]
        },
        {
            "name" : "Cube",
            "primitives" : [
                {
                    "attributes" : {
                        "POSITION" : 4,
                        "NORMAL" : 5,
                        "TEXCOORD_0" : 6
                    },
                    "indices" : 7,
                    "material" : 1
                }
            ]
        },
        {
            "name" : "Cylinder.001",
            "primitives" : [
                {
                    "attributes" : {
                        "POSITION" : 8,
                        "NORMAL" : 9,
                        "TEXCOORD_0" : 10
                    },
                    "indices" : 11,
                    "material" : 2
                }
            ]
        },
        {
            "name" : "Cylinder.003",
            "primitives" : [
                {
                    "attributes" : {
                        "POSITION" : 12,
                        "NORMAL" : 13,
                        "TEXCOORD_0" : 14
                    },
                    "indices" : 15,
                    "material" : 3
                }
            ]
        },
        {
            "name" : "Plane",
            "primitives" : [
                {
                    "attributes" : {
                        "POSITION" : 16,
                        "NORMAL" : 17,
                        "TEXCOORD_0" : 18
                    },
                    "indices" : 19,
                    "material" : 4
                }
            ]
        }
    ],
    "textures" : [
        {
            "sampler" : 0,
            "source" : 0
        },
        {
            "sampler" : 0,
            "source" : 0
        },
        {
            "sampler" : 0,
            "source" : 1
        }
    ],
    "images" : [
        {
            "bufferView" : 4,
            "mimeType" : "image/png",
            "name" : "simple_face"
        },
        {
            "bufferView" : 13,
            "mimeType" : "image/png",
            "name" : "TyreBumpMap"
        }
    ],
    "accessors" : [
        {
            "bufferView" : 0,
            "componentType" : 5126,
            "count" : 4,
            "max" : [
                0,
                0.027637865394353867,
                0.04248884692788124
            ],
            "min" : [
                0,
                -0.027637865394353867,
                -0.04248884692788124
            ],
            "type" : "VEC3"
        },
        {
            "bufferView" : 1,
            "componentType" : 5126,
            "count" : 4,
            "type" : "VEC3"
        },
        {
            "bufferView" : 2,
            "componentType" : 5126,
            "count" : 4,
            "type" : "VEC2"
        },
        {
            "bufferView" : 3,
            "componentType" : 5123,
            "count" : 6,
            "type" : "SCALAR"
        },
        {
            "bufferView" : 5,
            "componentType" : 5126,
            "count" : 326,
            "max" : [
                0.016193218529224396,
                0.03141184523701668,
                0.04829074814915657
            ],
            "min" : [
                -0.016193218529224396,
                -0.03141184523701668,
                -0.04829075559973717
            ],
            "type" : "VEC3"
        },
        {
            "bufferView" : 6,
            "componentType" : 5126,
            "count" : 326,
            "type" : "VEC3"
        },
        {
            "bufferView" : 7,
            "componentType" : 5126,
            "count" : 326,
            "type" : "VEC2"
        },
        {
            "bufferView" : 8,
            "componentType" : 5123,
            "count" : 1284,
            "type" : "SCALAR"
        },
        {
            "bufferView" : 9,
            "componentType" : 5126,
            "count" : 779,
            "max" : [
                1,
                1,
                1
            ],
            "min" : [
                -1,
                -1,
                -1
            ],
            "type" : "VEC3"
        },
        {
            "bufferView" : 10,
            "componentType" : 5126,
            "count" : 779,
            "type" : "VEC3"
        },
        {
            "bufferView" : 11,
            "componentType" : 5126,
            "count" : 779,
            "type" : "VEC2"
        },
        {
            "bufferView" : 12,
            "componentType" : 5123,
            "count" : 2496,
            "type" : "SCALAR"
        },
        {
            "bufferView" : 14,
            "componentType" : 5126,
            "count" : 64,
            "max" : [
                0.7487903237342834,
                1,
                0.7487903237342834
            ],
            "min" : [
                -0.7487903237342834,
                -1,
                -0.7487903237342834
            ],
            "type" : "VEC3"
        },
        {
            "bufferView" : 15,
            "componentType" : 5126,
            "count" : 64,
            "type" : "VEC3"
        },
        {
            "bufferView" : 16,
            "componentType" : 5126,
            "count" : 64,
            "type" : "VEC2"
        },
        {
            "bufferView" : 17,
            "componentType" : 5123,
            "count" : 180,
            "type" : "SCALAR"
        },
        {
            "bufferView" : 18,
            "componentType" : 5126,
            "count" : 14,
            "max" : [
                3.678771495819092,
                1.983161449432373,
                1
            ],
            "min" : [
                -1.3288391828536987,
                0,
                -1.0100932121276855
            ],
            "type" : "VEC3"
        },
        {
            "bufferView" : 19,
            "componentType" : 5126,
            "count" : 14,
            "type" : "VEC3"
        },
        {
            "bufferView" : 20,
            "componentType" : 5126,
            "count" : 14,
            "type" : "VEC2"
        },
        {
            "bufferView" : 21,
            "componentType" : 5123,
            "count" : 24,
            "type" : "SCALAR"
        }
    ],
    "bufferViews" : [
        {
            "buffer" : 0,
            "byteLength" : 48,
            "byteOffset" : 0
        },
        {
            "buffer" : 0,
            "byteLength" : 48,
            "byteOffset" : 48
        },
        {
            "buffer" : 0,
            "byteLength" : 32,
            "byteOffset" : 96
        },
        {
            "buffer" : 0,
            "byteLength" : 12,
            "byteOffset" : 128
        },
        {
            "buffer" : 0,
            "byteLength" : 3079,
            "byteOffset" : 140
        },
        {
            "buffer" : 0,
            "byteLength" : 3912,
            "byteOffset" : 3220
        },
        {
            "buffer" : 0,
            "byteLength" : 3912,
            "byteOffset" : 7132
        },
        {
            "buffer" : 0,
            "byteLength" : 2608,
            "byteOffset" : 11044
        },
        {
            "buffer" : 0,
            "byteLength" : 2568,
            "byteOffset" : 13652
        },
        {
            "buffer" : 0,
            "byteLength" : 9348,
            "byteOffset" : 16220
        },
        {
            "buffer" : 0,
            "byteLength" : 9348,
            "byteOffset" : 25568
        },
        {
            "buffer" : 0,
            "byteLength" : 6232,
            "byteOffset" : 34916
        },
        {
            "buffer" : 0,
            "byteLength" : 4992,
            "byteOffset" : 41148
        },
        {
            "buffer" : 0,
            "byteLength" : 1968028,
            "byteOffset" : 46140
        },
        {
            "buffer" : 0,
            "byteLength" : 768,
            "byteOffset" : 2014168
        },
        {
            "buffer" : 0,
            "byteLength" : 768,
            "byteOffset" : 2014936
        },
        {
            "buffer" : 0,
            "byteLength" : 512,
            "byteOffset" : 2015704
        },
        {
            "buffer" : 0,
            "byteLength" : 360,
            "byteOffset" : 2016216
        },
        {
            "buffer" : 0,
            "byteLength" : 168,
            "byteOffset" : 2016576
        },
        {
            "buffer" : 0,
            "byteLength" : 168,
            "byteOffset" : 2016744
        },
        {
            "buffer" : 0,
            "byteLength" : 112,
            "byteOffset" : 2016912
        },
        {
            "buffer" : 0,
            "byteLength" : 48,
            "byteOffset" : 2017024
        }
    ],
    "samplers" : [
        {
            "magFilter" : 9729,
            "minFilter" : 9987
        }
    ],
    "buffers" : [
        {
            "byteLength" : 2017072,
            "uri" : "data:application/octet-stream;base64,"
        }
    ]
}
